<svg width="48" height="48" viewBox="0 0 48 48" fill="none" xmlns="http://www.w3.org/2000/svg">
<path d="M19 20C19 20.7956 18.6839 21.5587 18.1213 22.1213C17.5587 22.6839 16.7956 23 16 23C15.2044 23 14.4413 22.6839 13.8787 22.1213C13.3161 21.5587 13 20.7956 13 20C13 19.2044 13.3161 18.4413 13.8787 17.8787C14.4413 17.3161 15.2044 17 16 17C16.7956 17 17.5587 17.3161 18.1213 17.8787C18.6839 18.4413 19 19.2044 19 20ZM11 26.5C11 26.1022 11.158 25.7206 11.4393 25.4393C11.7206 25.158 12.1022 25 12.5 25H19.5C19.8978 25 20.2794 25.158 20.5607 25.4393C20.842 25.7206 21 26.1022 21 26.5V27C21 27 21 31 16 31C11 31 11 27 11 27V26.5ZM25 20.25C25 19.56 25.56 19 26.25 19H35.75C35.9142 19 36.0767 19.0323 36.2284 19.0951C36.38 19.158 36.5178 19.25 36.6339 19.3661C36.75 19.4822 36.842 19.62 36.9049 19.7716C36.9677 19.9233 37 20.0858 37 20.25C37 20.4142 36.9677 20.5767 36.9049 20.7284C36.842 20.88 36.75 21.0178 36.6339 21.1339C36.5178 21.25 36.38 21.342 36.2284 21.4049C36.0767 21.4677 35.9142 21.5 35.75 21.5H26.25C25.56 21.5 25 20.94 25 20.25ZM26.25 26C25.9185 26 25.6005 26.1317 25.3661 26.3661C25.1317 26.6005 25 26.9185 25 27.25C25 27.5815 25.1317 27.8995 25.3661 28.1339C25.6005 28.3683 25.9185 28.5 26.25 28.5H35.75C36.0815 28.5 36.3995 28.3683 36.6339 28.1339C36.8683 27.8995 37 27.5815 37 27.25C37 26.9185 36.8683 26.6005 36.6339 26.3661C36.3995 26.1317 36.0815 26 35.75 26H26.25ZM4 12.25C4 11.1228 4.44777 10.0418 5.2448 9.2448C6.04183 8.44777 7.12283 8 8.25 8H39.75C40.8772 8 41.9582 8.44777 42.7552 9.2448C43.5522 10.0418 44 11.1228 44 12.25V35.75C44 36.8772 43.5522 37.9582 42.7552 38.7552C41.9582 39.5522 40.8772 40 39.75 40H8.25C7.12283 40 6.04183 39.5522 5.2448 38.7552C4.44777 37.9582 4 36.8772 4 35.75V12.25ZM8.25 10.5C7.78587 10.5 7.34075 10.6844 7.01256 11.0126C6.68437 11.3408 6.5 11.7859 6.5 12.25V35.75C6.5 36.717 7.284 37.5 8.25 37.5H39.75C40.2141 37.5 40.6592 37.3156 40.9874 36.9874C41.3156 36.6592 41.5 36.2141 41.5 35.75V12.25C41.5 11.7859 41.3156 11.3408 40.9874 11.0126C40.6592 10.6844 40.2141 10.5 39.75 10.5H8.25Z" fill="#FFFFFF"/>
</svg>
